<svg width="120" height="19" viewBox="0 0 120 19" fill="none" xmlns="http://www.w3.org/2000/svg">
<g clip-path="url(#clip0_74_652)">
<rect width="120" height="19" fill="white"/>
<mask id="mask0_74_652" style="mask-type:alpha" maskUnits="userSpaceOnUse" x="23" y="-2" width="24" height="24">
<rect x="23" y="-2" width="24" height="24" fill="#D9D9D9"/>
</mask>
<g mask="url(#mask0_74_652)">
<path d="M28.825 19L30.45 11.975L25 7.25L32.2 6.625L35 0L37.8 6.625L45 7.25L39.55 11.975L41.175 19L35 15.275L28.825 19Z" fill="#1C1B1F"/>
</g>
<mask id="mask1_74_652" style="mask-type:alpha" maskUnits="userSpaceOnUse" x="48" y="-2" width="24" height="24">
<rect x="48" y="-2" width="24" height="24" fill="#D9D9D9"/>
</mask>
<g mask="url(#mask1_74_652)">
<path d="M53.825 19L55.45 11.975L50 7.25L57.2 6.625L60 0L62.8 6.625L70 7.25L64.55 11.975L66.175 19L60 15.275L53.825 19Z" fill="#1C1B1F"/>
</g>
<mask id="mask2_74_652" style="mask-type:alpha" maskUnits="userSpaceOnUse" x="73" y="-2" width="24" height="24">
<rect x="73" y="-2" width="24" height="24" fill="#D9D9D9"/>
</mask>
<g mask="url(#mask2_74_652)">
<path d="M78.825 19L80.45 11.975L75 7.25L82.2 6.625L85 0L87.8 6.625L95 7.25L89.55 11.975L91.175 19L85 15.275L78.825 19Z" fill="#1C1B1F"/>
</g>
<mask id="mask3_74_652" style="mask-type:alpha" maskUnits="userSpaceOnUse" x="-2" y="-2" width="24" height="24">
<rect x="-2" y="-2" width="24" height="24" fill="#D9D9D9"/>
</mask>
<g mask="url(#mask3_74_652)">
<path d="M3.825 19L5.45 11.975L0 7.25L7.2 6.625L10 0L12.8 6.625L20 7.25L14.55 11.975L16.175 19L10 15.275L3.825 19Z" fill="#1C1B1F"/>
</g>
<mask id="mask4_74_652" style="mask-type:alpha" maskUnits="userSpaceOnUse" x="98" y="-2" width="24" height="24">
<rect x="98" y="-2" width="24" height="24" fill="#D9D9D9"/>
</mask>
<g mask="url(#mask4_74_652)">
<path d="M106.85 14.825L110 12.925L113.15 14.85L112.325 11.25L115.1 8.85L111.45 8.525L110 5.125L108.55 8.5L104.9 8.825L107.675 11.25L106.85 14.825ZM103.825 19L105.45 11.975L100 7.25L107.2 6.625L110 0L112.8 6.625L120 7.25L114.55 11.975L116.175 19L110 15.275L103.825 19Z" fill="#1C1B1F"/>
</g>
</g>
<defs>
<clipPath id="clip0_74_652">
<rect width="120" height="19" fill="white"/>
</clipPath>
</defs>
</svg>
